PathFileType	4	(X/Y/Z)	C:/Users/opensim2020/Desktop/walking_exp_matlab/subject06_walking23_straight_02.trc																																																																																																																																					
DataRate	CameraRate	NumFrames	NumMarkers	Units	OrigDataRate	OrigDataStartFrame	OrigNumFrames																																																																																																																																	
100	100	8	45	mm	100	1376	114																																																																																																																																	
Frame#	Time	LFHD			RFHD			LBHD			RBHD			C7			T10			CLAV			STRN			RBAK			LSHO			LUPA			LELB			LFRM			LWRA			LWRB			LFIN			RSHO			RUPA			RELB			RFRM			RWRA			RWRB			RFIN			LASI			RASI			LPSI			RPSI			LTHI			LKNE			LTIB			LANK			LHEE			LTOE			RTHI			RKNE			RTIB			RANK			RHEE			RTOE			*39			*40			*41			*42			*43			*44		
		X1	Y1	Z1	X2	Y2	Z2	X3	Y3	Z3	X4	Y4	Z4	X5	Y5	Z5	X6	Y6	Z6	X7	Y7	Z7	X8	Y8	Z8	X9	Y9	Z9	X10	Y10	Z10	X11	Y11	Z11	X12	Y12	Z12	X13	Y13	Z13	X14	Y14	Z14	X15	Y15	Z15	X16	Y16	Z16	X17	Y17	Z17	X18	Y18	Z18	X19	Y19	Z19	X20	Y20	Z20	X21	Y21	Z21	X22	Y22	Z22	X23	Y23	Z23	X24	Y24	Z24	X25	Y25	Z25	X26	Y26	Z26	X27	Y27	Z27	X28	Y28	Z28	X29	Y29	Z29	X30	Y30	Z30	X31	Y31	Z31	X32	Y32	Z32	X33	Y33	Z33	X34	Y34	Z34	X35	Y35	Z35	X36	Y36	Z36	X37	Y37	Z37	X38	Y38	Z38	X39	Y39	Z39	X40	Y40	Z40	X41	Y41	Z41	X42	Y42	Z42	X43	Y43	Z43	X44	Y44	Z44	X45	Y45	Z45
																																																																																																																																								
100	0.99	578.12219	1656.53296	894.75079	606.50281	1658.44165	1023.95172	445.51578	1610.9209	929.64063	476.25165	1617.42651	1055.88159	452.73431	1452.60498	990.39917	427.79587	1121.78271	1001.94348	565.63879	1379.43579	983.03723	612.47314	1208.35059	978.18762	390.72513	1280.91394	1076.02441	494.31915	1404.55737	826.01459	493.04062	1202.09314	756.35071	494.42459	1088.81567	745.87488	553.09753	950.25702	723.76624	648.61859	862.68005	762.68848	590.38556	837.04559	731.11725	655.96289	775.09076	726.7168	528.63702	1413.90759	1146.41992	487.63742	1223.02356	1246.0033	491.77759	1100.87915	1261.94629	515.83966	983.66772	1280.32556	585.77985	850.96265	1245.53088	534.22284	847.22473	1288.69519	578.17743	775.11157	1288.60352	606.05853	967.24237	890.66071	612.27704	978.48993	1108.99023	448.64636	985.26587	919.8493	458.07617	996.16333	1086.82434	599.15137	647.61108	835.44507	643.17365	491.46671	856.93298	479.23941	309.52029	862.60162	369.57336	175.73759	897.95892	331.00598	183.83549	947.01257	462.21384	66.08955	886.88373	584.38641	637.42615	1162.22913	602.7049	513.27039	1133.88379	540.65479	250.48593	1120.46643	514.46875	69.99057	1063.35803	475.29675	49.42364	1016.39233	666.48578	30.97478	1073.64331	494.89069	1706.64124	970.02527	NaN	NaN	NaN	NaN	NaN	NaN	NaN	NaN	NaN	NaN	NaN	NaN	NaN	NaN	NaN
101	1	590.69769	1656.73608	894.02051	619.47644	1658.95276	1023.14972	458.26776	1611.38184	929.4975	489.34656	1618.33752	1055.6897	465.32822	1453.15344	990.82129	440.08319	1122.43921	1002.48181	578.02631	1379.87231	983.27795	624.71527	1208.70703	978.80054	403.4624	1281.60095	1076.64844	506.45917	1404.83093	826.2984	502.72028	1202.20239	757.11523	502.65079	1088.87012	746.95874	556.44788	948.50439	724.65344	648.57819	856.76105	762.60571	589.03845	833.73743	731.56537	652.12219	768.98413	726.35553	541.35547	1414.73767	1146.70264	501.29993	1223.82031	1246.81018	506.68939	1102.03357	1262.99036	534.35028	985.68353	1280.93677	608.95728	855.92328	1245.24377	557.60107	850.02594	1288.29822	604.21564	779.56976	1287.58179	619.41309	968.26752	891.4859	623.79718	978.41663	1109.94275	461.22949	986.07733	919.95441	469.68436	996.57617	1087.01538	616.85138	650.32611	835.2655	662.83795	494.63599	857.57611	505.69431	305.47852	863.84265	402.81586	166.41254	899.65265	364.3374	172.48125	948.80664	500.96982	62.07656	886.77802	591.55652	637.18726	1162.15979	608.29181	512.62433	1134.26379	543.45178	250.38129	1120.35474	514.6806	70.49711	1063.53613	475.89011	49.64891	1015.77753	666.55365	30.91972	1073.85449	507.83801	1707.1571	969.42725	NaN	NaN	NaN	NaN	NaN	NaN	NaN	NaN	NaN	NaN	NaN	NaN	NaN	NaN	NaN
102	1.01	603.35986	1656.87622	893.26837	632.4248	1659.22388	1022.37665	470.5412	1611.67383	928.98474	502.29507	1618.75696	1055.50647	478.26971	1452.7229	991.15894	452.51035	1122.67505	1003.16248	590.44159	1380.01074	983.44562	636.89172	1208.75598	979.32953	415.81671	1282.0304	1077.67139	518.48029	1404.75488	826.63489	512.32977	1201.9386	757.97424	510.74762	1088.69275	748.05017	559.63287	946.52942	725.08838	648.40863	850.87286	762.50201	587.57678	830.43109	732.02673	647.91748	763.06573	726.07745	554.21472	1415.30676	1146.91199	514.81207	1224.51123	1247.54346	521.35895	1102.88672	1264.04089	552.59485	987.54138	1281.52612	631.78021	860.9491	1244.73572	580.73572	852.85284	1287.74268	629.73077	784.03821	1286.36768	632.0014	968.66125	892.52716	635.26428	978.17029	1110.78796	473.9187	986.56366	919.94879	481.32623	996.72858	1087.15076	634.36804	652.62085	835.36847	681.92352	497.45038	857.97656	532.30054	301.12662	864.90662	436.81393	156.78833	901.41278	398.56757	160.53641	950.84534	540.85596	58.62283	886.69452	599.50049	636.82074	1161.7467	613.94226	511.87558	1134.59778	546.13361	250.29393	1120.21423	515.16699	70.80414	1063.21899	476.41043	50.20186	1015.33844	666.63263	30.93661	1074.15222	520.61865	1707.34937	968.77344	NaN	NaN	NaN	NaN	NaN	NaN	NaN	NaN	NaN	NaN	NaN	NaN	NaN	NaN	NaN
103	1.02	615.85565	1656.29456	892.45642	645.49658	1659.16797	1021.76105	483.29913	1611.51306	929.48975	515.27258	1618.91821	1055.20081	490.63416	1453.35425	991.21979	464.72195	1122.62402	1003.43182	602.72369	1379.84436	983.58936	649.02441	1208.50024	979.76563	428.21524	1282.56873	1078.28796	530.57861	1404.46997	826.7926	522.11646	1201.47241	758.70874	519.19177	1088.25647	748.9679	563.20166	944.35486	725.86035	648.07239	845.02606	762.30713	586.31042	827.46466	732.03772	643.4715	757.4295	725.92206	566.97595	1415.37183	1146.99268	528.19537	1224.78894	1248.09387	535.84808	1103.45715	1264.99634	570.70966	989.27509	1281.90747	654.14185	865.90753	1243.99963	603.73035	855.72919	1287.03833	655.16315	788.81836	1285.1731	644.82117	968.83142	893.38806	646.75739	977.78821	1111.6427	486.40894	986.70233	919.98816	492.94879	996.65363	1087.18164	650.87244	654.59515	834.83923	700.32251	499.88434	858.16211	558.94232	296.20117	866.07178	471.43634	146.91087	903.27606	434.03571	148.24461	953.42828	580.45746	55.15751	886.64142	605.60437	636.52185	1162.43054	619.63385	511.05457	1134.91479	548.49359	250.1913	1120.03638	515.54663	71.19038	1062.56482	477.20303	50.50526	1014.76184	666.65784	30.89639	1074.43542	533.43433	1707.18945	968.19843	NaN	NaN	NaN	NaN	NaN	NaN	NaN	NaN	NaN	NaN	NaN	NaN	NaN	NaN	NaN
104	1.03	628.1972	1655.61621	891.81964	658.24622	1658.87805	1020.86676	495.55774	1611.23022	928.90619	528.24829	1618.7998	1055.04004	502.0733	1453.2699	992.02484	476.99594	1122.31726	1003.73578	615.08142	1379.37415	983.60596	661.12579	1207.95654	980.15192	440.64703	1282.51855	1078.79309	542.64844	1403.84351	826.90839	532.02216	1200.75208	759.36499	527.42975	1087.62683	749.89502	566.6427	942.34589	726.39301	647.68164	839.50604	762.19183	584.90411	824.52551	732.54541	639.06293	752.18756	725.73395	579.72559	1415.29346	1147.07104	541.37952	1224.69189	1248.48071	550.2699	1103.771	1265.87366	588.64758	990.82196	1282.18359	676.07776	870.72119	1243.0033	626.47766	858.58148	1286.24329	680.39972	793.76398	1283.87781	657.59351	968.6394	894.20428	658.39569	977.31604	1112.63782	499.03885	986.43573	919.7818	504.54111	996.38379	1087.11121	667.20618	656.28436	834.5899	718.06018	501.92264	858.1803	585.4707	290.96051	867.2793	506.74557	137.03615	905.14526	470.88641	135.56291	956.4093	620.83698	52.17301	886.40509	613.68396	635.89154	1162.27637	625.32886	510.14188	1135.20105	550.85199	250.08089	1119.84583	515.74115	71.55688	1062.25183	478.39667	50.24318	1013.8064	666.73944	30.84312	1074.69861	546.09363	1706.80969	967.66699	NaN	NaN	NaN	NaN	NaN	NaN	NaN	NaN	NaN	NaN	NaN	NaN	NaN	NaN	NaN
105	1.04	640.5174	1654.88232	891.09052	671.08063	1658.47864	1019.96057	507.9838	1610.52429	928.74316	541.12073	1618.27783	1054.68201	514.38873	1453.05139	992.47455	489.10153	1121.96375	1003.72064	627.44525	1378.69165	983.57263	673.23798	1207.17297	980.4682	453.01846	1282.37048	1079.34534	554.86273	1402.99109	826.92749	542.10437	1199.77039	759.92578	535.93359	1086.73169	750.67932	570.09845	940.34735	727.04926	647.1969	834.14331	762.02283	583.70746	821.74872	733.15704	634.62128	747.17828	725.74554	592.52234	1414.91553	1147.0365	554.58093	1224.36401	1248.85083	564.64087	1103.81848	1266.672	606.37976	992.21692	1282.28503	697.74426	875.61792	1241.86084	648.86755	861.46844	1285.3468	704.86829	798.5744	1282.18787	670.3147	968.15155	894.8576	669.61749	976.4408	1113.297	511.57755	985.82837	919.67719	516.10803	995.89331	1086.96521	682.33258	657.44336	834.74396	734.96881	503.37326	858.11182	612.26495	285.54568	868.30927	542.91718	127.07528	906.9978	507.61328	123.50142	958.62598	660.96051	49.18614	886.14252	622.5896	634.57019	1162.10364	631.0932	509.14343	1135.36609	553.26093	249.90688	1119.64441	516.59875	71.73123	1062.05005	478.76694	50.65018	1013.30176	666.62933	30.78669	1075.02307	558.67584	1706.15833	967.12518	NaN	NaN	NaN	NaN	NaN	NaN	NaN	NaN	NaN	NaN	NaN	NaN	NaN	NaN	NaN
106	1.05	653.02136	1653.91736	890.41211	684.07623	1657.68555	1019.27539	520.78198	1609.24402	928.7832	553.9649	1617.58435	1054.41418	527.04395	1452.13135	991.81622	501.51535	1121.02478	1003.63147	639.72528	1377.67224	983.48328	685.32269	1206.14844	980.70398	465.35376	1281.84717	1079.68286	567.0694	1401.9198	826.71869	552.19305	1198.58374	760.32397	544.45227	1085.69324	751.40948	573.40784	938.51733	727.11652	646.74274	829.20673	762.1792	582.67084	819.22015	733.49103	630.28149	742.5658	725.84766	605.18994	1414.36401	1146.87549	567.93347	1223.82214	1249.13745	579.0777	1103.62036	1267.26477	623.99799	993.47131	1282.32983	718.92401	880.41034	1240.60315	670.67535	864.42975	1284.29846	729.07892	803.61536	1280.81567	682.97198	967.36035	895.43964	681.33508	975.68579	1114.02722	524.12201	984.88721	919.32019	527.88739	995.13702	1086.64966	697.35516	658.09534	834.54492	751.46021	504.39047	857.77563	638.89081	279.90604	869.40674	579.23077	117.8092	908.58228	545.3418	111.66582	961.00311	702.02954	47.3557	885.52869	630.81921	634.14221	1161.31592	636.94226	508.0867	1135.41687	555.76782	249.68019	1119.48352	516.90814	71.96661	1061.74792	479.04132	50.95998	1012.87982	666.39355	30.75986	1075.18176	571.33118	1705.23987	966.64667	NaN	NaN	NaN	NaN	NaN	NaN	NaN	NaN	NaN	NaN	NaN	NaN	NaN	NaN	NaN
107	1.06	665.26129	1652.54126	889.6178	696.76453	1656.58167	1018.49097	533.14014	1608.11133	928.43237	566.80719	1616.58337	1054.11707	539.5108	1451.2887	992.03662	513.45532	1120.16211	1003.51202	652.10327	1376.49353	983.25836	697.44739	1204.91785	980.90863	477.62155	1281.03259	1079.88354	579.26648	1400.4873	826.58179	562.45386	1197.1792	760.60498	553.02307	1084.48889	752.0448	577.15485	936.2403	728.09143	646.91656	824.53705	761.96136	581.84052	816.78229	734.0011	626.17773	738.32678	726.021	617.83789	1413.5061	1146.67419	581.52234	1222.98083	1249.42041	593.52881	1103.19507	1267.77087	641.53577	994.55469	1282.151	739.64948	884.99701	1239.17053	692.15674	867.17609	1283.11536	752.68713	808.41296	1278.77832	695.52399	966.30511	895.89606	692.94562	974.67291	1114.55542	536.6394	983.70288	919.08722	539.60492	994.07825	1086.36279	711.87006	658.31049	834.30865	767.1889	504.80945	857.38123	665.7713	274.04523	870.28589	616.29401	108.69965	910.18036	582.89886	100.79576	962.61023	742.63519	45.68396	885.39093	639.20502	633.15173	1160.93225	643.06586	506.85019	1135.26257	558.42957	249.3765	1119.28564	517.30414	72.091	1061.44446	478.56631	51.70767	1012.55121	666.46075	30.75892	1075.28833	583.92499	1704.11243	966.08191	NaN	NaN	NaN	NaN	NaN	NaN	NaN	NaN	NaN	NaN	NaN	NaN	NaN	NaN	NaN
